<?xml version="1.0" encoding="UTF-8" standalone="no"?>
<!-- Created with Inkscape (http://www.inkscape.org/) -->

<svg
   xmlns:dc="http://purl.org/dc/elements/1.1/"
   xmlns:cc="http://creativecommons.org/ns#"
   xmlns:rdf="http://www.w3.org/1999/02/22-rdf-syntax-ns#"
   xmlns:svg="http://www.w3.org/2000/svg"
   xmlns="http://www.w3.org/2000/svg"
   xmlns:sodipodi="http://sodipodi.sourceforge.net/DTD/sodipodi-0.dtd"
   xmlns:inkscape="http://www.inkscape.org/namespaces/inkscape"
   width="137.76093"
   height="190.68042"
   id="svg2"
   version="1.1"
   inkscape:version="0.48.4 r9939"
   sodipodi:docname="gruz.svg">
  <defs
     id="defs4" />
  <sodipodi:namedview
     id="base"
     pagecolor="#ffffff"
     bordercolor="#666666"
     borderopacity="1.0"
     inkscape:pageopacity="0.0"
     inkscape:pageshadow="2"
     inkscape:zoom="1.4"
     inkscape:cx="356.52401"
     inkscape:cy="-22.824823"
     inkscape:document-units="px"
     inkscape:current-layer="text3772"
     showgrid="false"
     inkscape:window-width="1920"
     inkscape:window-height="1003"
     inkscape:window-x="-9"
     inkscape:window-y="-9"
     inkscape:window-maximized="1"
     fit-margin-top="0"
     fit-margin-left="0"
     fit-margin-right="0"
     fit-margin-bottom="0" />
  <metadata
     id="metadata7">
    <rdf:RDF>
      <cc:Work
         rdf:about="">
        <dc:format>image/svg+xml</dc:format>
        <dc:type
           rdf:resource="http://purl.org/dc/dcmitype/StillImage" />
        <dc:title></dc:title>
      </cc:Work>
    </rdf:RDF>
  </metadata>
  <g
     inkscape:label="Layer 1"
     inkscape:groupmode="layer"
     id="layer1"
     transform="translate(-16.263973,-10.257763)">
    <g
       id="g3785"
       transform="matrix(0.29241696,0,0,0.29241696,-25.710492,-46.501986)">
      <rect
         ry="45.714287"
         y="557.38745"
         x="153.5432"
         height="278.80209"
         width="451.11127"
         id="rect2985"
         style="fill:#000000;fill-opacity:1;stroke:#000000;stroke-width:20;stroke-linecap:butt;stroke-linejoin:miter;stroke-miterlimit:4;stroke-dasharray:none" />
      <path
         sodipodi:nodetypes="czzcccczcc"
         inkscape:connector-curvature="0"
         id="path2991"
         d="m 351.78986,322.95494 c -12.98435,16.15225 -0.30437,38.54355 16.75219,50.53345 17.05654,11.9899 43.3511,23.06441 30.04317,46.38001 -13.30794,23.3156 -44.35223,-1.39412 -58.14808,-17.30597 -30.27228,-21.60183 -27.93669,4.26782 -9.98454,10.64072 11.36397,48.2231 54.17118,63.88931 99.28336,36.43153 21.56048,-16.41542 23.12248,-32.81171 22.84389,-54.68689 -11.01165,-26.23673 -32.35734,-28.64435 -44.58018,-40.14986 -12.22285,-11.5055 -3.27935,-23.22518 1.00128,-31.56346 z"
         style="fill:#000000;stroke:#000000;stroke-width:0.48456728px;stroke-linecap:butt;stroke-linejoin:miter;stroke-opacity:1" />
      <path
         sodipodi:nodetypes="ccccc"
         inkscape:connector-curvature="0"
         id="rect2993"
         d="m 318.53226,204.10553 120,0 -18.57143,98.57143 -82.85714,0 z"
         style="fill:#000000;fill-opacity:1;stroke:#000000;stroke-width:20;stroke-linecap:butt;stroke-linejoin:miter;stroke-miterlimit:4" />
      <path
         inkscape:connector-curvature="0"
         id="path2996"
         d="M 365.67512,414.10553 307.10369,565.53411"
         style="fill:none;stroke:#000000;stroke-width:15;stroke-linecap:butt;stroke-linejoin:miter;stroke-miterlimit:4;stroke-opacity:1;stroke-dasharray:none" />
      <path
         inkscape:connector-curvature="0"
         id="path2998"
         d="M 378.53226,419.81982 357.10369,572.67696"
         style="fill:none;stroke:#000000;stroke-width:15;stroke-linecap:butt;stroke-linejoin:miter;stroke-miterlimit:4;stroke-opacity:1;stroke-dasharray:none" />
      <path
         inkscape:connector-curvature="0"
         id="path3000"
         d="m 389.96083,414.10553 14.28572,158.57143"
         style="fill:none;stroke:#000000;stroke-width:15;stroke-linecap:butt;stroke-linejoin:miter;stroke-miterlimit:4;stroke-opacity:1;stroke-dasharray:none" />
      <path
         inkscape:connector-curvature="0"
         id="path3002"
         d="m 395.67512,411.24839 60,151.42857"
         style="fill:none;stroke:#000000;stroke-width:15;stroke-linecap:butt;stroke-linejoin:miter;stroke-miterlimit:4;stroke-opacity:1;stroke-dasharray:none" />
      <g
         id="text3772"
         style="font-size:139.35855103px;font-style:normal;font-weight:normal;line-height:125%;letter-spacing:0px;word-spacing:0px;fill:#ffffff;fill-opacity:1;stroke:none;font-family:Sans">
        <g
           style="font-size:136.79096985px;fill:#ffffff;font-family:Sans"
           id="text2995">
          <path
             d="m 197.35945,741.15356 0,-98.48966 30.3697,0 0,73.86829 36.52295,0 -5.33505,24.62137 z"
             style="font-variant:normal;font-weight:800;font-stretch:normal;fill:#ffffff;font-family:a_PlakatCmpl;-inkscape-font-specification:a_PlakatCmpl Ultra-Bold"
             id="path3001" />
          <path
             d="m 321.60178,640.20093 c 7.11334,10e-5 13.88511,1.18566 20.31535,3.5567 6.43008,2.37122 12.08448,5.79086 16.9632,10.2589 4.87853,4.46822 8.77684,9.89441 11.69494,16.27858 2.91789,6.38431 4.37689,13.58954 4.377,21.61571 -1.1e-4,8.02349 -1.45911,15.22732 -4.377,21.61154 -2.9181,6.38426 -6.81641,11.81045 -11.69494,16.27857 -4.87872,4.46815 -10.53312,7.88778 -16.9632,10.25891 -6.43024,2.37113 -13.20201,3.55669 -20.31535,3.5567 -7.11344,-10e-6 -13.88452,-1.18557 -20.31326,-3.5567 -6.4288,-2.37113 -12.0825,-5.79076 -16.96111,-10.25891 -4.87864,-4.46812 -8.77695,-9.89431 -11.69494,-16.27857 -2.918,-6.38422 -4.377,-13.58805 -4.37699,-21.61154 0.0918,-8.02617 1.59675,-15.2314 4.51475,-21.61571 2.91798,-6.38417 6.8163,-11.81036 11.69494,-16.27858 4.87861,-4.46804 10.50935,-7.88768 16.89223,-10.2589 6.38282,-2.37104 13.13094,-3.5566 20.24438,-3.5567 z m -21.74929,51.70989 c -4e-5,4.01038 0.6157,7.54341 1.84723,10.59913 1.23144,3.05579 2.85046,5.63217 4.85706,7.72914 2.00651,2.09703 4.33172,3.67013 6.97564,4.7193 2.64382,1.04923 5.3336,1.57383 8.06936,1.5738 2.82749,3e-5 5.54093,-0.52457 8.14033,-1.5738 2.59928,-1.04917 4.90222,-2.62227 6.90885,-4.7193 2.00648,-2.09697 3.62481,-4.67335 4.85498,-7.72914 1.23002,-3.05572 1.84506,-6.58875 1.84514,-10.59913 -8e-5,-4.01306 -0.61512,-7.54749 -1.84514,-10.6033 -1.23017,-3.0557 -2.8485,-5.63207 -4.85498,-7.72915 -2.00663,-2.09693 -4.30957,-3.67003 -6.90885,-4.7193 -2.5994,-1.04913 -5.31284,-1.57372 -8.14033,-1.5738 -2.73576,8e-5 -5.42554,0.52467 -8.06936,1.5738 -2.64392,1.04927 -4.96913,2.62237 -6.97564,4.7193 -2.0066,2.09708 -3.62562,4.67345 -4.85706,7.72915 -1.23153,3.05581 -1.84727,6.59024 -1.84723,10.6033 z"
             style="font-variant:normal;font-weight:800;font-stretch:normal;fill:#ffffff;font-family:a_PlakatCmpl;-inkscape-font-specification:a_PlakatCmpl Ultra-Bold"
             id="path3003" />
          <path
             d="m 418.23377,667.28527 -3.9658,27.08435 11.48831,0 -3.96581,-27.08435 z m -10.80785,73.86829 -31.18791,0 19.28633,-98.48966 48.9714,0 19.2905,98.48966 -31.18791,0 -3.5567,-24.62137 -18.05901,0 z"
             style="font-variant:normal;font-weight:800;font-stretch:normal;fill:#ffffff;font-family:a_PlakatCmpl;-inkscape-font-specification:a_PlakatCmpl Ultra-Bold"
             id="path3005" />
          <path
             d="m 472.27723,642.6639 41.85801,0 c 7.75343,10e-5 14.9357,1.0486 21.54683,3.14551 6.61098,2.0971 12.3106,5.22034 17.09887,9.36973 4.78809,4.14956 8.52707,9.30232 11.21696,15.45828 2.68968,6.1561 4.03458,13.29176 4.03468,21.40698 -1e-4,8.11811 -1.345,15.2322 -4.03468,21.34228 -2.68989,6.11014 -6.42887,11.21698 -11.21696,15.32053 -4.78827,4.10357 -10.48789,7.20385 -17.09887,9.30085 -6.61113,2.097 -13.7934,3.1455 -21.54683,3.1455 l -41.85801,0 z m 40.49294,73.86829 c 7.93154,3e-5 13.85798,-2.23474 17.77932,-6.70429 3.9212,-4.4695 5.88183,-10.39732 5.88191,-17.7835 -8e-5,-7.56697 -1.96071,-13.58524 -5.88191,-18.05483 -3.92134,-4.46946 -9.84778,-6.70422 -17.77932,-6.7043 l -10.12324,0 0,49.24692 z"
             style="font-variant:normal;font-weight:800;font-stretch:normal;fill:#ffffff;font-family:a_PlakatCmpl;-inkscape-font-specification:a_PlakatCmpl Ultra-Bold"
             id="path3007" />
        </g>
      </g>
    </g>
  </g>
</svg>
